HIERARCHY
ROOT Hips
{
 OFFSET 0.000000 0.000000 0.000000
 CHANNELS 6 Xposition Yposition Zposition Yrotation Xrotation Zrotation
 JOINT Chest
 {
  OFFSET 0.000000 9.581000 -0.001100
  CHANNELS 3 Yrotation Xrotation Zrotation
  JOINT Chest2
  {
   OFFSET 0.000000 9.561100 0.002200
   CHANNELS 3 Yrotation Xrotation Zrotation
   JOINT Chest3
   {
    OFFSET 0.000000 9.521100 0.000000
    CHANNELS 3 Yrotation Xrotation Zrotation
    JOINT Chest4
    {
     OFFSET 0.000000 9.511400 0.000000
     CHANNELS 3 Yrotation Xrotation Zrotation
     JOINT Neck
     {
      OFFSET 0.000000 14.375100 0.000000
      CHANNELS 3 Yrotation Xrotation Zrotation
      JOINT Head
      {
       OFFSET 0.000000 8.901200 0.004600
       CHANNELS 3 Yrotation Xrotation Zrotation
       End Site
       {
        OFFSET 0.000000 16.962200 0.002400
       }
      }
     }
     JOINT RightCollar
     {
      OFFSET -2.920100 9.518800 0.000000
      CHANNELS 3 Yrotation Xrotation Zrotation
      JOINT RightShoulder
      {
       OFFSET -13.664500 0.000000 0.000000
       CHANNELS 3 Yrotation Xrotation Zrotation
       JOINT RightElbow
       {
        OFFSET 0.000000 -29.999200 0.000000
        CHANNELS 3 Yrotation Xrotation Zrotation
        JOINT RightWrist
        {
         OFFSET 0.000000 -24.253600 0.000000
         CHANNELS 3 Yrotation Xrotation Zrotation
         End Site
         {
          OFFSET 0.000000 -17.918900 0.000000
         }
        }
       }
      }
     }
     JOINT LeftCollar
     {
      OFFSET 2.920100 9.518800 0.000000
      CHANNELS 3 Yrotation Xrotation Zrotation
      JOINT LeftShoulder
      {
       OFFSET 13.664500 0.000000 0.000000
       CHANNELS 3 Yrotation Xrotation Zrotation
       JOINT LeftElbow
       {
        OFFSET 0.000000 -29.999200 0.000000
        CHANNELS 3 Yrotation Xrotation Zrotation
        JOINT LeftWrist
        {
         OFFSET 0.000000 -24.253600 0.000000
         CHANNELS 3 Yrotation Xrotation Zrotation
         End Site
         {
          OFFSET 0.000000 -17.918900 0.000000
         }
        }
       }
      }
     }
    }
   }
  }
 }
 JOINT RightHip
 {
  OFFSET -7.797300 0.005300 0.000500
  CHANNELS 3 Yrotation Xrotation Zrotation
  JOINT RightKnee
  {
   OFFSET 0.000000 -40.663400 -0.000500
   CHANNELS 3 Yrotation Xrotation Zrotation
   JOINT RightAnkle
   {
    OFFSET 0.000000 -39.523700 -0.000900
    CHANNELS 3 Yrotation Xrotation Zrotation
    JOINT RightToe
    {
     OFFSET 0.000000 -6.418000 14.485300
     CHANNELS 3 Yrotation Xrotation Zrotation
     End Site
     {
      OFFSET 0.000000 -1.465200 6.326400
     }
    }
   }
  }
 }
 JOINT LeftHip
 {
  OFFSET 7.797300 0.005300 0.000500
  CHANNELS 3 Yrotation Xrotation Zrotation
  JOINT LeftKnee
  {
   OFFSET 0.000000 -40.663400 -0.000500
   CHANNELS 3 Yrotation Xrotation Zrotation
   JOINT LeftAnkle
   {
    OFFSET 0.000000 -39.523700 -0.000900
    CHANNELS 3 Yrotation Xrotation Zrotation
    JOINT LeftToe
    {
     OFFSET 0.000000 -6.418000 14.485300
     CHANNELS 3 Yrotation Xrotation Zrotation
     End Site
     {
      OFFSET 0.000000 -1.465200 6.326400
     }
    }
   }
  }
 }
}
MOTION
Frames: 15
Frame Time: 0.008333
-9.546099 126.488822 3.064182 169.975153 -29.914415 -3.670558 1.487250 21.939392 1.842470 0.161413 3.012055 0.213188 0.268337 4.895057 0.351217 1.281390 18.601960 1.537957 -0.227475 13.013908 -6.310650 1.190428 -11.994081 -6.719526 -2.814944 2.515538 0.260484 0.878055 -11.676201 -9.191075 -171.130653 -50.362929 -162.225099 -3.523462 -14.941817 -23.725301 -6.426049 0.045715 1.812754 -4.662147 -12.959546 5.611966 -88.681772 -76.501771 71.845523 -24.156546 -13.040894 20.112290 0.141112 -52.335078 5.091405 -107.455625 85.775853 -108.272803 10.617846 -21.731097 3.198518 -0.056931 0.090010 -0.025261 -8.361069 -46.174812 -1.368120 59.464871 81.650361 52.783512 2.214934 -8.844366 2.948150 0.004799 0.002898 0.002126
-9.547483 126.489172 3.066306 169.950111 -29.948958 -3.667968 1.480909 21.957245 1.825566 0.150119 3.011975 0.209875 0.289573 4.903706 0.355874 1.243390 18.598168 1.508160 -0.271613 12.934069 -6.264719 1.183558 -12.051127 -6.691436 -2.797397 2.542285 0.269768 0.873317 -11.585522 -9.137491 -171.273572 -50.586320 -162.165722 -3.601526 -15.276848 -23.972563 -6.379825 0.071680 1.808015 -4.623639 -12.970935 5.590307 -88.770592 -76.524643 71.911469 -24.180053 -13.029151 20.104549 0.249491 -52.308000 5.052826 -109.764876 85.838695 -110.563357 10.520641 -22.302598 3.093733 -0.068609 0.086767 -0.030441 -8.352501 -46.145148 -1.342726 59.480156 81.656323 52.782903 2.206072 -8.840044 2.953134 0.007197 0.003469 0.003189
-9.549561 126.488565 3.069503 169.936003 -29.969923 -3.664058 1.483864 21.972859 1.820582 0.120155 3.005784 0.203757 0.306669 4.909358 0.354917 1.149018 18.602940 1.477649 -0.252322 12.847352 -6.233311 1.183782 -12.110860 -6.673167 -2.711329 2.556656 0.259697 0.885191 -11.485031 -9.072350 -171.381547 -50.926882 -162.154712 -3.695279 -15.598973 -24.260782 -6.273743 0.077080 1.786519 -4.613959 -12.976978 5.597272 -88.775627 -76.525846 71.910042 -24.166670 -13.035755 20.109762 0.358229 -52.295602 4.992781 -112.180428 85.885826 -112.959635 10.454266 -22.926386 3.021008 -0.068765 0.083429 -0.030509 -8.357671 -46.128456 -1.317245 59.480602 81.664258 52.763470 2.198988 -8.831871 2.948187 0.008871 0.009225 0.003931
-9.551049 126.487087 3.074197 169.915493 -29.977219 -3.658298 1.461382 21.968051 1.801752 0.125124 3.008840 0.206020 0.260071 4.906757 0.345985 1.190619 18.615407 1.476701 -0.247347 12.812075 -6.225470 1.137597 -12.219728 -6.629618 -2.681122 2.560627 0.250186 0.897224 -11.369155 -8.999962 -171.461039 -51.371442 -162.180307 -3.781690 -15.871285 -24.549808 -6.237528 0.070448 1.760844 -4.612630 -12.977341 5.601221 -88.872684 -76.555372 72.001492 -24.164732 -13.032555 20.101168 0.690789 -52.330935 4.783093 -114.811836 85.875983 -115.438985 10.381429 -23.570151 2.975520 -0.033166 0.045061 -0.014705 -8.368396 -46.122806 -1.281566 59.456695 81.676080 52.715990 2.194962 -8.830784 2.950045 0.008535 0.013000 0.003783
-9.551464 126.485886 3.078690 169.886829 -29.983737 -3.651022 1.434100 21.956129 1.782431 0.161081 3.022725 0.210286 0.247923 4.903156 0.343552 1.205035 18.623528 1.476472 -0.287209 12.721538 -6.192448 1.149014 -12.274969 -6.614178 -2.692555 2.570432 0.241698 0.920714 -11.254509 -8.918006 -171.511488 -51.903061 -162.233869 -3.858114 -16.083455 -24.816833 -6.220323 0.055179 1.736632 -4.642971 -13.026590 5.557868 -88.731286 -76.515600 71.869773 -24.167200 -13.039016 20.073715 0.909981 -52.363481 4.656900 -117.287581 85.836694 -117.822741 10.349542 -24.237252 2.916781 0.001831 0.000204 0.000811 -8.370934 -46.115107 -1.247079 59.392612 81.696395 52.634711 2.206806 -8.826994 2.951570 0.003184 0.009081 0.001411
-9.554417 126.485920 3.080231 169.879096 -30.002277 -3.632763 1.430171 21.972406 1.764488 0.154470 3.020866 0.209254 0.246216 4.899511 0.341808 1.178057 18.627394 1.469899 -0.273244 12.635659 -6.161857 1.161827 -12.324762 -6.592277 -2.662095 2.581414 0.231664 0.911011 -11.133285 -8.832555 -171.537257 -52.505742 -162.304503 -3.930377 -16.252923 -25.071817 -6.165967 0.036128 1.704832 -4.673877 -13.048059 5.547108 -88.899047 -76.500542 72.031636 -24.159936 -12.998185 20.031189 1.088751 -52.386572 4.524152 -119.580242 85.782666 -120.050888 10.336683 -24.877183 2.854691 0.030926 -0.041256 0.013694 -8.352981 -46.098533 -1.261852 59.334667 81.715506 52.573205 2.216773 -8.832179 2.948555 0.001990 0.013959 0.000882
-9.552963 126.487349 3.080840 169.870634 -30.031190 -3.636004 1.430269 21.986612 1.766118 0.158919 3.002892 0.206091 0.249749 4.928785 0.346442 1.160130 18.613799 1.458297 -0.240002 12.582258 -6.126720 1.167434 -12.386129 -6.554174 -2.637765 2.604300 0.235038 0.873784 -11.004023 -8.749902 -171.546185 -53.161514 -162.392026 -3.995792 -16.405775 -25.345974 -6.124853 0.027139 1.679067 -4.705963 -13.075553 5.537352 -88.873070 -76.464779 71.993734 -24.179828 -13.029262 20.004336 1.161621 -52.384514 4.481572 -121.494429 85.732403 -121.947438 10.332139 -25.481284 2.793788 0.043330 -0.055771 0.019181 -8.374157 -46.066110 -1.226176 59.282889 81.762205 52.509589 2.234917 -8.853190 2.936411 0.008631 0.017358 0.003825
-9.551999 126.489158 3.080773 169.877167 -30.061395 -3.640278 1.428633 21.997361 1.765940 0.171615 3.004233 0.207339 0.237435 4.930166 0.344476 1.160118 18.623681 1.459236 -0.201119 12.523739 -6.090188 1.179168 -12.441310 -6.508743 -2.586029 2.652531 0.250050 0.788341 -10.898944 -8.684260 -171.550924 -53.857384 -162.493768 -4.041607 -16.564518 -25.681050 -6.114622 0.021302 1.667681 -4.717316 -13.124809 5.513219 -88.823128 -76.431022 71.925074 -24.187944 -13.032905 19.974635 1.226776 -52.386264 4.426804 -123.111214 85.670182 -123.545315 10.324176 -26.007374 2.740694 0.053232 -0.061589 0.023562 -8.404412 -46.031326 -1.198954 59.226360 81.786699 52.435978 2.242354 -8.859064 2.929313 0.013677 0.015736 0.006061
-9.554718 126.487958 3.085048 169.863803 -30.056367 -3.614962 1.448470 21.971017 1.751582 0.176961 3.009372 0.206771 0.234243 4.927472 0.344138 1.211033 18.613273 1.454151 -0.216475 12.504857 -6.032547 1.214463 -12.506367 -6.450437 -2.638203 2.688426 0.282269 0.751556 -10.749160 -8.623099 -171.583140 -54.591865 -162.581755 -4.063920 -16.748660 -26.107940 -6.167925 0.037966 1.680954 -4.724901 -13.179743 5.488588 -88.739992 -76.405642 71.819335 -24.198385 -13.023306 19.947668 1.470043 -52.475170 4.196513 -124.990149 85.587146 -125.301051 10.337376 -26.401355 2.687507 0.046508 -0.103436 0.020573 -8.383514 -46.037290 -1.215856 59.187103 81.803319 52.397838 2.249755 -8.863599 2.920135 0.017792 0.014254 0.007885
-9.554833 126.487924 3.088088 169.832978 -30.062761 -3.593040 1.494186 21.959339 1.751691 0.178853 3.013417 0.207956 0.261128 4.916811 0.341595 1.219617 18.625065 1.462224 -0.180351 12.463101 -5.971037 1.238833 -12.551685 -6.390621 -2.581076 2.763438 0.317463 0.632211 -10.648446 -8.585001 -171.676131 -55.374365 -162.625455 -4.071723 -16.971343 -26.627212 -6.154800 0.010756 1.633548 -4.795842 -13.210615 5.511698 -88.609948 -76.386822 71.664963 -24.212272 -13.018335 19.920376 1.643924 -52.520387 4.027379 -126.269009 85.550397 -126.487910 10.323628 -26.742881 2.647980 0.024835 -0.109525 0.010985 -8.360737 -46.028219 -1.218782 59.170285 81.814703 52.382591 2.252249 -8.872413 2.909136 0.018195 0.012038 0.008063
-9.553452 126.488540 3.090414 169.833121 -30.072845 -3.593482 1.530683 21.947130 1.767632 0.167326 3.025621 0.207663 0.245834 4.923087 0.340784 1.242908 18.623473 1.463952 -0.082836 12.415637 -5.899668 1.253269 -12.572030 -6.328331 -2.516164 2.804993 0.339301 0.540100 -10.515710 -8.551067 -171.834406 -56.216197 -162.614763 -4.074160 -17.238641 -27.204937 -6.163269 0.007567 1.626856 -4.805268 -13.274960 5.487178 -88.443469 -76.375147 71.471161 -24.223050 -13.018148 19.893342 1.698137 -52.532551 3.955609 -126.346721 85.421786 -126.522031 10.357321 -27.058726 2.622522 0.027109 -0.100596 0.011992 -8.363852 -46.013364 -1.225139 59.203126 81.813019 52.424330 2.256471 -8.885742 2.897093 0.018157 0.016673 0.008046
-9.551933 126.489110 3.092749 169.808401 -30.083013 -3.581753 1.561917 21.951453 1.772848 0.182089 3.022717 0.208027 0.253888 4.922396 0.342712 1.300962 18.623854 1.469718 -0.042983 12.406992 -5.817031 1.293114 -12.583949 -6.253149 -2.538905 2.830037 0.370468 0.494140 -10.368667 -8.517912 -172.035779 -57.126714 -162.559342 -4.067390 -17.558456 -27.775870 -6.226920 0.008953 1.635687 -4.810044 -13.340726 5.464068 -88.255925 -76.374266 71.251077 -24.241540 -13.006603 19.873834 1.772526 -52.541175 3.884680 -126.388008 85.340325 -126.519211 10.345880 -27.299799 2.613207 0.025153 -0.091268 0.011129 -8.340725 -46.003764 -1.237865 59.289689 81.804802 52.521632 2.257624 -8.890995 2.888159 0.015381 0.013476 0.006816
-9.551576 126.489032 3.095782 169.778822 -30.085911 -3.561467 1.609006 21.941752 1.775850 0.184421 3.025145 0.208177 0.298838 4.918377 0.343464 1.328615 18.627582 1.481569 0.000542 12.433297 -5.731718 1.338145 -12.558864 -6.176583 -2.548652 2.851886 0.399683 0.446564 -10.232967 -8.479835 -172.240072 -58.105927 -162.485190 -4.043449 -17.929001 -28.277576 -6.236246 -0.012104 1.617932 -4.881010 -13.381453 5.469659 -88.045981 -76.369672 71.007442 -24.255262 -12.999185 19.859819 1.895977 -52.555890 3.763076 -126.583782 85.304718 -126.646445 10.325013 -27.469863 2.608411 0.016769 -0.082352 0.007421 -8.310211 -46.004179 -1.260206 59.379584 81.792889 52.616562 2.264351 -8.894308 2.887154 0.007014 0.007652 0.003108
-9.549762 126.490209 3.096794 169.760961 -30.102948 -3.553657 1.653513 21.943078 1.786507 0.171400 3.034238 0.209403 0.323778 4.913469 0.342885 1.331096 18.633268 1.488777 0.095098 12.488187 -5.665847 1.385756 -12.497837 -6.103197 -2.491472 2.868454 0.409463 0.401049 -10.114277 -8.432509 -172.416588 -59.136755 -162.415322 -4.020347 -18.339370 -28.667384 -6.210866 -0.040259 1.598124 -4.941174 -13.383528 5.479747 -87.935013 -76.362615 70.880681 -24.216780 -13.012457 19.845808 1.964158 -52.547047 3.694909 -126.385813 85.239933 -126.401112 10.328226 -27.586162 2.605985 0.022432 -0.071958 0.009928 -8.298626 -45.991131 -1.277258 59.542521 81.770057 52.787039 2.263528 -8.897934 2.878679 0.003272 0.000155 0.001450
-9.545686 126.491385 3.098182 169.738375 -30.119658 -3.557176 1.706130 21.944524 1.810990 0.160833 3.040989 0.210914 0.339682 4.910997 0.342037 1.341641 18.636256 1.495496 0.186958 12.560845 -5.603143 1.438800 -12.417725 -6.034242 -2.492629 2.877026 0.417979 0.428183 -10.003582 -8.380457 -172.607110 -60.193085 -162.319351 -4.011373 -18.756989 -28.927543 -6.209923 -0.058824 1.588342 -4.977997 -13.391618 5.481746 -87.809042 -76.393968 70.754370 -24.238860 -13.010093 19.822896 1.965520 -52.533878 3.694809 -125.589944 85.150123 -125.573986 10.368593 -27.628439 2.596498 0.034856 -0.055754 0.015430 -8.301223 -45.979025 -1.273203 59.749529 81.750779 52.997415 2.268561 -8.906738 2.871623 -0.006563 -0.004165 -0.002908
